<mxfile host="65bd71144e">
    <diagram name="Page-1" id="swTUcdaIANcFbcdThNlT">
        <mxGraphModel dx="416" dy="548" grid="1" gridSize="10" guides="1" tooltips="1" connect="1" arrows="1" fold="1" page="1" pageScale="1" pageWidth="827" pageHeight="1169" math="0" shadow="0">
            <root>
                <mxCell id="0"/>
                <mxCell id="1" parent="0"/>
                <mxCell id="XEa114n2T4ieFxFgY9uD-2" value="&lt;ul&gt;&lt;li&gt;&lt;span style=&quot;background-color: initial;&quot;&gt;Home&lt;/span&gt;&lt;br&gt;&lt;/li&gt;&lt;li&gt;Bio&lt;/li&gt;&lt;li&gt;Contact&lt;/li&gt;&lt;li&gt;Work/Study History&lt;/li&gt;&lt;li&gt;Resume&lt;/li&gt;&lt;li&gt;Blog&lt;/li&gt;&lt;li&gt;Blog Post 1&lt;/li&gt;&lt;li&gt;Blog Post 2&lt;/li&gt;&lt;li&gt;Blog Post 3&lt;/li&gt;&lt;li&gt;Blog Post 4&lt;/li&gt;&lt;li&gt;Blog Post 5&lt;/li&gt;&lt;/ul&gt;" style="text;html=1;strokeColor=none;fillColor=none;align=center;verticalAlign=middle;whiteSpace=wrap;rounded=0;" parent="1" vertex="1">
                    <mxGeometry y="70" width="200" height="160" as="geometry"/>
                </mxCell>
                <mxCell id="XEa114n2T4ieFxFgY9uD-11" style="edgeStyle=orthogonalEdgeStyle;rounded=0;orthogonalLoop=1;jettySize=auto;html=1;exitX=0.5;exitY=1;exitDx=0;exitDy=0;entryX=0.5;entryY=0;entryDx=0;entryDy=0;" parent="1" source="XEa114n2T4ieFxFgY9uD-3" target="XEa114n2T4ieFxFgY9uD-6" edge="1">
                    <mxGeometry relative="1" as="geometry"/>
                </mxCell>
                <mxCell id="XEa114n2T4ieFxFgY9uD-12" style="edgeStyle=orthogonalEdgeStyle;rounded=0;orthogonalLoop=1;jettySize=auto;html=1;exitX=0.5;exitY=1;exitDx=0;exitDy=0;entryX=0.5;entryY=0;entryDx=0;entryDy=0;" parent="1" source="XEa114n2T4ieFxFgY9uD-3" target="XEa114n2T4ieFxFgY9uD-7" edge="1">
                    <mxGeometry relative="1" as="geometry"/>
                </mxCell>
                <mxCell id="XEa114n2T4ieFxFgY9uD-13" style="edgeStyle=orthogonalEdgeStyle;rounded=0;orthogonalLoop=1;jettySize=auto;html=1;exitX=0.5;exitY=1;exitDx=0;exitDy=0;entryX=0.5;entryY=0;entryDx=0;entryDy=0;" parent="1" source="XEa114n2T4ieFxFgY9uD-3" target="XEa114n2T4ieFxFgY9uD-4" edge="1">
                    <mxGeometry relative="1" as="geometry"/>
                </mxCell>
                <mxCell id="XEa114n2T4ieFxFgY9uD-14" style="edgeStyle=orthogonalEdgeStyle;rounded=0;orthogonalLoop=1;jettySize=auto;html=1;exitX=0.5;exitY=1;exitDx=0;exitDy=0;" parent="1" source="XEa114n2T4ieFxFgY9uD-3" target="XEa114n2T4ieFxFgY9uD-5" edge="1">
                    <mxGeometry relative="1" as="geometry"/>
                </mxCell>
                <mxCell id="XEa114n2T4ieFxFgY9uD-3" value="Home" style="rounded=0;whiteSpace=wrap;html=1;" parent="1" vertex="1">
                    <mxGeometry x="480" y="40" width="80" height="40" as="geometry"/>
                </mxCell>
                <mxCell id="XEa114n2T4ieFxFgY9uD-4" value="Bio" style="rounded=0;whiteSpace=wrap;html=1;" parent="1" vertex="1">
                    <mxGeometry x="240" y="160" width="80" height="40" as="geometry"/>
                </mxCell>
                <mxCell id="XEa114n2T4ieFxFgY9uD-37" style="edgeStyle=orthogonalEdgeStyle;rounded=0;orthogonalLoop=1;jettySize=auto;html=1;exitX=0.5;exitY=1;exitDx=0;exitDy=0;entryX=0.5;entryY=0;entryDx=0;entryDy=0;" parent="1" source="XEa114n2T4ieFxFgY9uD-5" target="XEa114n2T4ieFxFgY9uD-36" edge="1">
                    <mxGeometry relative="1" as="geometry"/>
                </mxCell>
                <mxCell id="XEa114n2T4ieFxFgY9uD-5" value="Contact" style="rounded=0;whiteSpace=wrap;html=1;" parent="1" vertex="1">
                    <mxGeometry x="720" y="160" width="80" height="40" as="geometry"/>
                </mxCell>
                <mxCell id="XEa114n2T4ieFxFgY9uD-29" style="edgeStyle=orthogonalEdgeStyle;rounded=0;orthogonalLoop=1;jettySize=auto;html=1;exitX=0.5;exitY=1;exitDx=0;exitDy=0;entryX=0.5;entryY=0;entryDx=0;entryDy=0;" parent="1" source="XEa114n2T4ieFxFgY9uD-6" target="XEa114n2T4ieFxFgY9uD-28" edge="1">
                    <mxGeometry relative="1" as="geometry"/>
                </mxCell>
                <mxCell id="XEa114n2T4ieFxFgY9uD-6" value="Work/Study History" style="rounded=0;whiteSpace=wrap;html=1;" parent="1" vertex="1">
                    <mxGeometry x="400" y="160" width="80" height="40" as="geometry"/>
                </mxCell>
                <mxCell id="XEa114n2T4ieFxFgY9uD-21" style="edgeStyle=orthogonalEdgeStyle;rounded=0;orthogonalLoop=1;jettySize=auto;html=1;exitX=0.5;exitY=1;exitDx=0;exitDy=0;entryX=0.5;entryY=0;entryDx=0;entryDy=0;" parent="1" source="XEa114n2T4ieFxFgY9uD-7" target="XEa114n2T4ieFxFgY9uD-15" edge="1">
                    <mxGeometry relative="1" as="geometry"/>
                </mxCell>
                <mxCell id="XEa114n2T4ieFxFgY9uD-22" style="edgeStyle=orthogonalEdgeStyle;rounded=0;orthogonalLoop=1;jettySize=auto;html=1;exitX=0.5;exitY=1;exitDx=0;exitDy=0;" parent="1" source="XEa114n2T4ieFxFgY9uD-7" target="XEa114n2T4ieFxFgY9uD-17" edge="1">
                    <mxGeometry relative="1" as="geometry"/>
                </mxCell>
                <mxCell id="XEa114n2T4ieFxFgY9uD-23" style="edgeStyle=orthogonalEdgeStyle;rounded=0;orthogonalLoop=1;jettySize=auto;html=1;exitX=0.5;exitY=1;exitDx=0;exitDy=0;" parent="1" source="XEa114n2T4ieFxFgY9uD-7" target="XEa114n2T4ieFxFgY9uD-18" edge="1">
                    <mxGeometry relative="1" as="geometry"/>
                </mxCell>
                <mxCell id="XEa114n2T4ieFxFgY9uD-24" style="edgeStyle=orthogonalEdgeStyle;rounded=0;orthogonalLoop=1;jettySize=auto;html=1;exitX=0.5;exitY=1;exitDx=0;exitDy=0;entryX=0.5;entryY=0;entryDx=0;entryDy=0;" parent="1" source="XEa114n2T4ieFxFgY9uD-7" target="XEa114n2T4ieFxFgY9uD-19" edge="1">
                    <mxGeometry relative="1" as="geometry"/>
                </mxCell>
                <mxCell id="XEa114n2T4ieFxFgY9uD-25" style="edgeStyle=orthogonalEdgeStyle;rounded=0;orthogonalLoop=1;jettySize=auto;html=1;exitX=0.5;exitY=1;exitDx=0;exitDy=0;entryX=0.5;entryY=0;entryDx=0;entryDy=0;" parent="1" source="XEa114n2T4ieFxFgY9uD-7" target="XEa114n2T4ieFxFgY9uD-20" edge="1">
                    <mxGeometry relative="1" as="geometry"/>
                </mxCell>
                <mxCell id="XEa114n2T4ieFxFgY9uD-7" value="Blog" style="rounded=0;whiteSpace=wrap;html=1;" parent="1" vertex="1">
                    <mxGeometry x="560" y="160" width="80" height="40" as="geometry"/>
                </mxCell>
                <mxCell id="XEa114n2T4ieFxFgY9uD-15" value="BP1" style="ellipse;whiteSpace=wrap;html=1;aspect=fixed;" parent="1" vertex="1">
                    <mxGeometry x="500" y="280" width="40" height="40" as="geometry"/>
                </mxCell>
                <mxCell id="XEa114n2T4ieFxFgY9uD-16" value="BP2" style="ellipse;whiteSpace=wrap;html=1;aspect=fixed;" parent="1" vertex="1">
                    <mxGeometry x="540" y="280" width="40" height="40" as="geometry"/>
                </mxCell>
                <mxCell id="XEa114n2T4ieFxFgY9uD-17" value="BP2" style="ellipse;whiteSpace=wrap;html=1;aspect=fixed;" parent="1" vertex="1">
                    <mxGeometry x="540" y="280" width="40" height="40" as="geometry"/>
                </mxCell>
                <mxCell id="XEa114n2T4ieFxFgY9uD-18" value="BP3" style="ellipse;whiteSpace=wrap;html=1;aspect=fixed;" parent="1" vertex="1">
                    <mxGeometry x="580" y="280" width="40" height="40" as="geometry"/>
                </mxCell>
                <mxCell id="XEa114n2T4ieFxFgY9uD-19" value="BP4" style="ellipse;whiteSpace=wrap;html=1;aspect=fixed;" parent="1" vertex="1">
                    <mxGeometry x="620" y="280" width="40" height="40" as="geometry"/>
                </mxCell>
                <mxCell id="XEa114n2T4ieFxFgY9uD-20" value="BP5" style="ellipse;whiteSpace=wrap;html=1;aspect=fixed;" parent="1" vertex="1">
                    <mxGeometry x="660" y="280" width="40" height="40" as="geometry"/>
                </mxCell>
                <mxCell id="XEa114n2T4ieFxFgY9uD-28" value="Resume" style="rounded=1;whiteSpace=wrap;html=1;" parent="1" vertex="1">
                    <mxGeometry x="410" y="280" width="60" height="30" as="geometry"/>
                </mxCell>
                <mxCell id="XEa114n2T4ieFxFgY9uD-35" value="Content for Website" style="text;html=1;strokeColor=none;fillColor=none;align=center;verticalAlign=middle;whiteSpace=wrap;rounded=0;" parent="1" vertex="1">
                    <mxGeometry x="50" y="10" width="130" height="30" as="geometry"/>
                </mxCell>
                <mxCell id="XEa114n2T4ieFxFgY9uD-36" value="Social" style="rounded=1;whiteSpace=wrap;html=1;" parent="1" vertex="1">
                    <mxGeometry x="730" y="280" width="60" height="30" as="geometry"/>
                </mxCell>
            </root>
        </mxGraphModel>
    </diagram>
</mxfile>